<?xml version="1.0" encoding="UTF-8"?>
<!DOCTYPE svg PUBLIC "-//W3C//DTD SVG 1.1//EN" "http://www.w3.org/Graphics/SVG/1.1/DTD/svg11.dtd">
<svg xmlns="http://www.w3.org/2000/svg" version="1.1" width="128px" height="128px" style="shape-rendering:geometricPrecision; text-rendering:geometricPrecision; image-rendering:optimizeQuality; fill-rule:evenodd; clip-rule:evenodd" xmlns:xlink="http://www.w3.org/1999/xlink">
<g><path style="opacity:0.884" fill="#fefffe" d="M 53.5,-0.5 C 60.8333,-0.5 68.1667,-0.5 75.5,-0.5C 105.423,7.08715 122.757,26.0872 127.5,56.5C 127.5,60.1667 127.5,63.8333 127.5,67.5C 121.534,102.627 100.701,121.627 65,124.5C 54.16,124.373 43.8266,122.04 34,117.5C 23.6285,120.569 13.4618,123.902 3.5,127.5C 2.16667,127.5 0.833333,127.5 -0.5,127.5C -0.5,127.167 -0.5,126.833 -0.5,126.5C 3.13154,115.942 6.79821,105.275 10.5,94.5C -4.23381,64.5222 0.0995185,37.6889 23.5,14C 32.3944,6.7184 42.3944,1.88506 53.5,-0.5 Z M 59.5,10.5 C 89.256,10.4333 107.756,24.7666 115,53.5C 117.353,81.9731 105.187,101.14 78.5,111C 63.3947,114.583 49.228,112.416 36,104.5C 29.8469,106.107 23.8469,108.107 18,110.5C 19.2942,104.443 21.1275,98.4426 23.5,92.5C 7.84877,66.5958 10.8488,43.0958 32.5,22C 40.6555,15.9152 49.6555,12.0819 59.5,10.5 Z"/></g>
<g><path style="opacity:0.906" fill="#fefffe" d="M 42.5,30.5 C 44.9892,30.2978 47.3225,30.7978 49.5,32C 53.2542,37.6541 55.0875,43.8208 55,50.5C 53.4851,52.6772 51.9851,54.8439 50.5,57C 55.4058,66.4047 62.7391,73.238 72.5,77.5C 75.0828,74.299 78.0828,71.6323 81.5,69.5C 87.0222,71.5109 92.1889,74.1776 97,77.5C 97.2499,87.7548 92.0833,93.0881 81.5,93.5C 59.6842,89.192 44.1842,76.8587 35,56.5C 30.9798,45.6466 33.4798,36.9799 42.5,30.5 Z"/></g>
</svg>
